<svg xmlns="http://www.w3.org/2000/svg" viewBox="0 0 82 100"><defs><style>.cls-1{fill:#f9484e;}.cls-2{fill:#f9da6a;}.cls-3{fill:#d10000;}.cls-4{fill:#f9a31c;}</style></defs><g id="Capa_2" data-name="Capa 2"><g id="Layer_2" data-name="Layer 2"><path class="cls-1" d="M41,46.23c-5.84-8.6-7.62-19.25-8.08-30.16-2,3.76-6.56,12.13-6.56,12.13.51,1.33,7.32,14.7,7.32,14.7l-.53-.45A40.79,40.79,0,0,0,41,48.53Z"/><path class="cls-2" d="M41,0c-1.71,3.37-5.7,11.26-7.32,14.59-.15.31-.41.82-.76,1.48C33.38,27,35.16,37.63,41,46.23Z"/><path class="cls-1" d="M22.24,78.54c2-3.54,5.07-6.59,9.63-7.6C6.33,67,2.21,38.52,2.57,15.83a9.72,9.72,0,0,1-.11-2.17C1.41,16.14,1,19.48.61,22.19A69.26,69.26,0,0,0,3.14,51.87c2.57,7.7,10,14.33,16.26,19.39l-.1.12s-.51.15-.29.43c-2.67,4-2.46,10.28-1.6,14.78a19.41,19.41,0,0,0,4.09,9A20.82,20.82,0,0,1,22.24,78.54Z"/><path class="cls-1" d="M7.54,44.57a18.46,18.46,0,0,0,4.39,7.68c1-.5,5.88-2.8,11-1.71,5.38,1.16,9,5.73,9.37,6.19h.12C29.34,45.08,16.16,47.62,7.54,44.57Z"/><path class="cls-2" d="M33.15,42.45,12.63,25.26c-.45,2.16-1.3,4.18-1.05,6.48-2.07-5.26-8.08-9.81-9-15.91C2.21,38.52,6.33,67,31.87,70.94c-4.56,1-7.6,4.06-9.63,7.6A20.82,20.82,0,0,0,21.5,95.6a22.54,22.54,0,0,0,5,4.4c-1.9-5.27-3.14-9-.41-14.14,1.89-3.6,4.37-5.09,7.46-6.89a18,18,0,0,1,7.46.14V48.53A40.79,40.79,0,0,1,33.15,42.45ZM32.3,56.78s-5.47,3-11.14,1.79A14.89,14.89,0,0,1,16,56.24a19.72,19.72,0,0,1-4.2-3.9l.18-.09a18.46,18.46,0,0,1-4.39-7.68c8.62,3,21.8.51,24.84,12.17h-.12Z"/><path class="cls-3" d="M41,48.53a40.79,40.79,0,0,0,7.85-6.08l-.53.45s6.81-13.37,7.32-14.7c0,0-4.58-8.37-6.56-12.13C48.62,27,46.84,37.63,41,46.23Z"/><path class="cls-4" d="M49.08,16.07c-.35-.66-.61-1.17-.76-1.48C46.7,11.26,42.71,3.37,41,0V46.23C46.84,37.63,48.62,27,49.08,16.07Z"/><path class="cls-3" d="M81.39,22.19c-.41-2.71-.81-6.05-1.85-8.53a10.36,10.36,0,0,1-.11,2.17c.36,22.69-3.76,51.14-29.3,55.11,4.56,1,7.6,4.06,9.63,7.6A20.82,20.82,0,0,1,60.5,95.6a19.41,19.41,0,0,0,4.09-9c.86-4.5,1.06-10.74-1.6-14.78.21-.28-.29-.43-.29-.43l-.1-.12c6.27-5.06,13.69-11.69,16.26-19.39A69.26,69.26,0,0,0,81.39,22.19Z"/><path class="cls-3" d="M59.11,50.54c5.08-1.09,10,1.21,11,1.71a18.46,18.46,0,0,0,4.39-7.68c-8.62,3-21.8.51-24.84,12.17h.11C50.09,56.27,53.72,51.7,59.11,50.54Z"/><path class="cls-4" d="M59.76,78.54c-2-3.54-5.07-6.59-9.63-7.6,25.54-4,29.66-32.42,29.3-55.11-.93,6.1-6.94,10.65-9,15.91.25-2.3-.6-4.32-1-6.48L48.85,42.45A40.79,40.79,0,0,1,41,48.53V79.11A18,18,0,0,1,48.46,79c3.09,1.8,5.57,3.29,7.46,6.89,2.73,5.18,1.49,8.87-.41,14.14a22.54,22.54,0,0,0,5-4.4A20.82,20.82,0,0,0,59.76,78.54ZM49.62,56.74c3-11.66,16.22-9.12,24.84-12.17a18.46,18.46,0,0,1-4.39,7.68l.17.09a19.21,19.21,0,0,1-4.19,3.9,14.89,14.89,0,0,1-5.21,2.33c-5.67,1.22-11.14-1.79-11.14-1.79l0-.05Z"/></g></g></svg>