<svg xmlns="http://www.w3.org/2000/svg" viewBox="0 0 88.65 93.72"><defs><style>.cls-1{fill:#9d7b5b;}.cls-2{fill:#deb78a;}.cls-3{fill:#664a34;}.cls-4{fill:#392318;}</style></defs><g id="Capa_2" data-name="Capa 2"><g id="Layer_2" data-name="Layer 2"><path class="cls-1" d="M66.73,34.87C69.62,30.51,70.58,24,70,14.79l-.2-.16c-2.21-1.79-15.24-7.22-22.59-7.5,0,0,0,.1,0,0a48.53,48.53,0,0,1,.22,5.73c0,1.56-3.35,36.68-3.35,36.68l.33-.27C51.49,43.65,61.26,42.6,66.73,34.87Z"/><path class="cls-2" d="M41.31,7.13c0,.11,0,.06,0,0-8,.52-20.45,5.51-22.9,7.5l-.36.28c-.37,7.79.22,13.84,2.43,18.27.32.56.66,1.13,1,1.69C27,42.6,36.76,43.65,43.79,49.27l.33.27-3-37.67C41.14,10.19,41.21,8.63,41.31,7.13Z"/><path class="cls-3" d="M47.25,7.13H41.31c-.1,1.5-.17,3.06-.17,4.74l3,37.67s3.3-35.12,3.35-36.68A48.53,48.53,0,0,0,47.25,7.13Z"/><path class="cls-3" d="M47.25,7.13s0-.1,0,0S47.25,7.18,47.25,7.13Z"/><path class="cls-3" d="M41.31,7.13c0-.1,0,0,0,0S41.3,7.24,41.31,7.13Z"/><path class="cls-4" d="M83.85,19.65a93.72,93.72,0,0,1-1.5,17.77c.88,14.91-3.7,29.35-6.85,35.57-.34,7.87-3.36,17-4.75,20.73C86.84,75.71,94.22,36.41,83.85,19.65Z"/><path class="cls-3" d="M6.41,38A91.78,91.78,0,0,1,4.8,19.65c-10.37,16.76-3,56.06,13.1,74.07-1.35-3.67-4.24-12.34-4.72-20h0C8.78,61.64,5.94,48.81,6.41,38Z"/><path class="cls-3" d="M82.35,37.42a47.75,47.75,0,0,0-5.9-21.15C78.78,13.14,73.64,5,68.33,0,69.2,5.56,69.79,10.47,70,14.79c.54,9.19-.42,15.72-3.31,20.08-5.47,7.73-15.24,8.78-22.28,14.4l-.33.27V91.37S48.62,73.31,55,65.88C70.75,47.59,75.5,73,75.5,73h0C78.65,66.77,83.23,52.33,82.35,37.42ZM50,56.24a9.13,9.13,0,0,1,3.29-5.74c3.15-2.36,9.25-1.88,15.73-1C67.61,56.24,56.26,57.66,50,56.24Z"/><path class="cls-1" d="M44.05,49.54Z"/><path class="cls-1" d="M18.05,14.91c.17-3.66.55-7.69,1.07-12.13-4,5-9.22,12.72-6.29,16.21C8.68,23.73,6.74,30.36,6.41,38c-.47,10.86,2.37,23.69,6.77,35.73h0c.05-.33,3.74-26.66,20-7.8C39.89,73.7,44,91.37,44.05,91.37V49.54c-7-5.63-17.14-6.94-22.61-14.67a17.24,17.24,0,0,1-1-1.69C18.27,28.75,17.68,22.7,18.05,14.91ZM34.85,50.5a9.13,9.13,0,0,1,3.29,5.74c-6.23,1.42-17.58,0-19-6.7C25.6,48.62,31.7,48.14,34.85,50.5Z"/></g></g></svg>