<svg xmlns="http://www.w3.org/2000/svg" viewBox="0 0 76.09 100"><defs><style>.cls-1{fill:#f94d53;}.cls-2{fill:#425a61;}.cls-3{fill:#d40000;}.cls-4{fill:#000e15;}</style></defs><g id="Capa_2" data-name="Capa 2"><g id="Layer_2" data-name="Layer 2"><path class="cls-1" d="M18.18,12.12C28,16.89,33.64,25.72,38.05,35.48V0H34.91C26.24,0,17.37,4,10.74,10.91A13.49,13.49,0,0,1,18.18,12.12Z"/><path class="cls-2" d="M10.22,41.86a2.45,2.45,0,0,1-.46-.45c-3.54-4.54-1-10.6,3.53-13.63,9.31-6.77,20-.42,24.76,8.35v-.65c-4.41-9.76-10-18.59-19.87-23.36a13.49,13.49,0,0,0-7.44-1.21A38,38,0,0,0,.57,31a25.65,25.65,0,0,0,5,7.87A9.13,9.13,0,0,0,10.22,41.86Z"/><path class="cls-1" d="M18.34,37.88c.48,4.24-5.66,5.85-8.12,4a9.13,9.13,0,0,1-4.66-3A25.65,25.65,0,0,1,.57,31,39.55,39.55,0,0,0,0,37.71L1.68,51.93a33.63,33.63,0,0,1,6.6,4.69c0-.19,0-.37,0-.56,4.55,4,7.58,9.09,11.11,14.14,5.27-6.23,9.64-17,18.7-17.65v-5C30.82,45.14,25.91,39.3,18.34,37.88Zm3,17.93c-5.86,0-10.61-4-10.61-4s4.75-4,10.61-4,10.6,4,10.6,4S27.23,55.81,21.38,55.81Z"/><path class="cls-2" d="M4,71.93A63.16,63.16,0,0,0,20.36,100c-8.48-12.47-11-28.39-12.08-43.38a33.63,33.63,0,0,0-6.6-4.69Z"/><path class="cls-3" d="M57.91,12.12a13.52,13.52,0,0,1,7.45-1.21C58.73,4,49.85,0,41.18,0H38.05V35.48C42.45,25.72,48.07,16.89,57.91,12.12Z"/><path class="cls-4" d="M57.91,12.12c-9.84,4.77-15.46,13.6-19.86,23.36v.65C42.77,27.36,53.49,21,62.8,27.78c4.54,3,7.07,9.09,3.53,13.63a2.45,2.45,0,0,1-.46.45,9.15,9.15,0,0,0,4.67-3,25.42,25.42,0,0,0,5-7.87A38.08,38.08,0,0,0,65.36,10.91,13.52,13.52,0,0,0,57.91,12.12Z"/><path class="cls-3" d="M75.52,31a25.42,25.42,0,0,1-5,7.87,9.15,9.15,0,0,1-4.67,3c-2.46,1.87-8.59.26-8.12-4-7.57,1.42-12.48,7.26-19.7,9.66v5C47.1,53.21,51.47,64,56.74,70.2c3.53-5,6.56-10.1,11.11-14.14,0,.19,0,.37,0,.56a34,34,0,0,1,6.61-4.69l1.67-14.22A39.55,39.55,0,0,0,75.52,31ZM54.72,55.81c-5.86,0-10.61-4-10.61-4s4.75-4,10.61-4,10.61,4,10.61,4S60.58,55.81,54.72,55.81Z"/><path class="cls-4" d="M55.73,100A63.18,63.18,0,0,0,72.06,71.93l2.36-20a34,34,0,0,0-6.61,4.69C66.78,71.61,64.21,87.53,55.73,100Z"/></g></g></svg>