<svg xmlns="http://www.w3.org/2000/svg" viewBox="0 0 74.89 60"><defs><style>.cls-1{fill:#5d4749;}.cls-2{fill:#a29195;}.cls-3{fill:#bfadb1;}.cls-4{fill:#e9d7d8;}.cls-5{fill:#726166;}.cls-6{fill:#100000;}.cls-7{fill:#635055;}.cls-8{fill:#877076;}.cls-9{fill:#bba3a6;}.cls-10{fill:#2a171c;}</style></defs><g id="Capa_2" data-name="Capa 2"><g id="Layer_2" data-name="Layer 2"><path class="cls-1" d="M6.38,44.56a85.82,85.82,0,0,1,2.82-10l.3,0c-.38-6.31.29-12.8,6.27-16.34-1.22-2.28-2.56-4.56-4-6.76A45.09,45.09,0,0,0,0,42.37q0,2.3.21,4.53a54.7,54.7,0,0,0,11,12.68c.59.58.72.51,1.29.09a76.79,76.79,0,0,1-.76-10.39C9.67,48.58,6.1,46,6.38,44.56Z"/><path class="cls-2" d="M11.75,11.51c1.46,2.2,2.8,4.48,4,6.76-6,3.54-6.65,10-6.27,16.34,8.88,1.53,20.38,3,20.37,3.76-.06,3.14-.1,6-.1,6-3.28.9-11.65,3.78-16.82,5.1a2.28,2.28,0,0,1-1.16-.16,76.79,76.79,0,0,0,.76,10.39,6.81,6.81,0,0,1,.59-.42c5.26-3.76,9.06-5,17.65-10.56.4-2.73,1.34-4.45,2.64-5.46A108,108,0,0,0,12.9,10.33C12.51,10.71,12.12,11.11,11.75,11.51Z"/><path class="cls-1" d="M24.72,2.48a35.17,35.17,0,0,0-7.61,4.27c6.77,11.5,13.38,23.16,18,35.61A7.44,7.44,0,0,1,37.42,42V40.83C34.9,27.71,29.88,15,24.72,2.48Z"/><path class="cls-3" d="M37.42,0H37.3A33.23,33.23,0,0,0,24.72,2.48C29.88,15,34.9,27.71,37.42,40.83Z"/><path class="cls-4" d="M11.59,1.87C19.67,15.22,27.71,28.59,34.47,42.6a6.44,6.44,0,0,1,.61-.24c-4.59-12.45-11.2-24.11-18-35.61A38.41,38.41,0,0,0,11.59,1.87Z"/><path class="cls-5" d="M10.7,1.2a24.36,24.36,0,0,0,2.2,9.13,108,108,0,0,1,20.53,32.9,4.81,4.81,0,0,1,1-.63c-6.76-14-14.8-27.38-22.88-40.73C11.05,1.45,10.7,1.2,10.7,1.2Z"/><path class="cls-6" d="M63.15,11.51c-1.47,2.2-2.81,4.48-4,6.76,6,3.54,6.65,10,6.28,16.34l.3,0a86.72,86.72,0,0,1,2.81,10c.28,1.45-3.28,4-5.4,4.72a78.44,78.44,0,0,1-.76,10.39c.56.42.69.49,1.28-.09A54.7,54.7,0,0,0,74.68,46.9q.21-2.24.21-4.53A45.08,45.08,0,0,0,63.15,11.51Z"/><path class="cls-7" d="M61.94,49.44c-5.16-1.32-13.53-4.2-16.82-5.1,0,0,0-2.83-.09-6,0-.75,11.49-2.23,20.37-3.76.37-6.31-.29-12.8-6.28-16.34,1.22-2.28,2.56-4.56,4-6.76-.38-.4-.76-.8-1.15-1.18a107.59,107.59,0,0,0-20.53,32.9c1.29,1,2.23,2.73,2.63,5.46,8.6,5.51,12.4,6.8,17.65,10.56.25.16.44.3.6.42a78.44,78.44,0,0,0,.76-10.39A2.33,2.33,0,0,1,61.94,49.44Z"/><path class="cls-6" d="M50.18,2.48C45,15,40,27.71,37.47,40.83V42a7.4,7.4,0,0,1,2.34.35c4.6-12.45,11.2-24.11,18-35.61A35.65,35.65,0,0,0,50.18,2.48Z"/><path class="cls-8" d="M37.6,0h-.13V40.83C40,27.71,45,15,50.18,2.48A33.27,33.27,0,0,0,37.6,0Z"/><path class="cls-9" d="M57.79,6.75c-6.78,11.5-13.38,23.16-18,35.61a6.44,6.44,0,0,1,.61.24c6.76-14,14.8-27.38,22.89-40.73A37.37,37.37,0,0,0,57.79,6.75Z"/><path class="cls-10" d="M64.19,1.2s-.35.25-.88.67C55.22,15.22,47.18,28.59,40.42,42.6a5.13,5.13,0,0,1,1,.63A107.59,107.59,0,0,1,62,10.33,24.46,24.46,0,0,0,64.19,1.2Z"/></g></g></svg>